<svg xmlns="http://www.w3.org/2000/svg" width="29.11" height="22.641" viewBox="0 0 29.11 22.641">
  <g id="Tessera" transform="translate(-43.093 -44.962)">
    <path id="credit-card" d="M0,52.216a2.426,2.426,0,0,0,2.426,2.426H26.685a2.426,2.426,0,0,0,2.426-2.426V43.321H0Zm9.7-3.437a.608.608,0,0,1,.606-.606h6.873a.608.608,0,0,1,.606.606V50.8a.608.608,0,0,1-.606.606H10.31A.608.608,0,0,1,9.7,50.8Zm-6.469,0a.608.608,0,0,1,.606-.606H7.48a.608.608,0,0,1,.606.606V50.8a.608.608,0,0,1-.606.606H3.841a.608.608,0,0,1-.606-.606ZM29.11,34.426v2.426H0V34.426A2.427,2.427,0,0,1,2.426,32H26.685A2.426,2.426,0,0,1,29.11,34.426Z" transform="translate(43.093 12.962)" fill="#8e8e93"/>
  </g>
</svg>
