<svg height="25" viewBox="0 0 30 25" width="30" xmlns="http://www.w3.org/2000/svg" xmlns:xlink="http://www.w3.org/1999/xlink"><linearGradient id="a" gradientUnits="objectBoundingBox" x2="1" y1=".5" y2=".5"><stop offset="0" stop-color="#fff"/><stop offset="0" stop-color="#8e8e93"/><stop offset="1" stop-color="#8e8e93"/></linearGradient><g fill="url(#a)"><path d="m28.393 3.789h-26.786a1.769 1.769 0 0 1 -1.607-1.894 1.769 1.769 0 0 1 1.607-1.895h26.786a1.769 1.769 0 0 1 1.607 1.895 1.769 1.769 0 0 1 -1.607 1.894z"/><path d="m28.393 3.789h-26.786a1.769 1.769 0 0 1 -1.607-1.894 1.769 1.769 0 0 1 1.607-1.895h26.786a1.769 1.769 0 0 1 1.607 1.895 1.769 1.769 0 0 1 -1.607 1.894z" transform="translate(0 21.211)"/><path d="m28.393 3.789h-26.786a1.769 1.769 0 0 1 -1.607-1.894 1.769 1.769 0 0 1 1.607-1.895h26.786a1.769 1.769 0 0 1 1.607 1.895 1.769 1.769 0 0 1 -1.607 1.894z" transform="translate(0 10.606)"/></g></svg>