<svg xmlns="http://www.w3.org/2000/svg" width="46.365" height="46.365" viewBox="0 0 46.365 46.365">
  <g id="Indicazioni" transform="translate(-30 -494)">
    <g id="Ellipse_19" data-name="Ellipse 19" transform="translate(30 494)" fill="none" stroke="#007aff" stroke-width="2">
      <circle cx="23.182" cy="23.182" r="23.182" stroke="none"/>
      <circle cx="23.182" cy="23.182" r="22.182" fill="none"/>
    </g>
    <path id="directions-solid" d="M24.542,11.393,13.607.458a1.567,1.567,0,0,0-2.215,0L.458,11.393a1.567,1.567,0,0,0,0,2.215L11.393,24.542a1.566,1.566,0,0,0,2.215,0L24.542,13.607a1.567,1.567,0,0,0,0-2.215Zm-4.931.613L15.5,15.8a.391.391,0,0,1-.656-.287V12.891H10.156v3.125a.391.391,0,0,1-.391.391H8.2a.391.391,0,0,1-.391-.391V12.109a1.563,1.563,0,0,1,1.563-1.562h5.469V7.923a.391.391,0,0,1,.656-.287l4.112,3.8A.391.391,0,0,1,19.611,12.006Z" transform="translate(41.419 504.422)" fill="#007aff"/>
  </g>
</svg>
