<svg xmlns="http://www.w3.org/2000/svg" xmlns:xlink="http://www.w3.org/1999/xlink" viewBox="0 0 283.46 91.83"><defs><style>.cls-1{fill:#fff;}.cls-2{fill:url(#Sfumatura_senza_nome_159);}.cls-3{fill:url(#Sfumatura_senza_nome_22);}</style><linearGradient id="Sfumatura_senza_nome_159" x1="-59.58" y1="213.07" x2="-86.78" y2="281.02" gradientTransform="matrix(0.76, 0.65, -0.65, 0.76, 251.44, -88.21)" gradientUnits="userSpaceOnUse"><stop offset="0" stop-color="#9e0d05"/><stop offset="0.79" stop-color="#ff0d05"/><stop offset="1" stop-color="#9e0d05"/></linearGradient><linearGradient id="Sfumatura_senza_nome_22" x1="-62.23" y1="224.03" x2="-65.63" y2="230.18" gradientTransform="matrix(0.76, 0.65, -0.65, 0.76, 251.44, -88.21)" gradientUnits="userSpaceOnUse"><stop offset="0" stop-color="#9e0d05"/><stop offset="0.49" stop-color="#ff0d05"/><stop offset="1" stop-color="#9e0d05"/></linearGradient></defs><title>logobianco</title><g id="Livello_2" data-name="Livello 2"><g id="Livello_1-2" data-name="Livello 1"><path class="cls-1" d="M0,70.71V0H4.78V70.71Z"/><path class="cls-1" d="M75.4,23.51,89.54,63.74l-2.49,7L70.32,23.51Zm30.88,0h5.07l-24,68.32H82.27Z"/><path class="cls-1" d="M119.32,56.67c0-7.27,4.79-12.45,16.24-13l12.15-.49v4.48L135,48.3c-7.27.3-10.85,3.09-10.85,8.27v2.89c0,4,3.38,7.57,8.56,7.57a9.82,9.82,0,0,0,5.88-1.59l9.16-6.08v5.08l-10.56,7a7.79,7.79,0,0,1-2.79.4c-9.26,0-15-5.28-15-13.25ZM150.6,37.55c0-7.47-4.58-10.36-13.45-10.36l-13.94,1V23.4c6.87-.69,12.15-1,15.84-1,7.17,0,16.33,2.89,16.33,15.64V70.71H150.6Z"/><path class="cls-1" d="M174.7,55.28c0,8.06,4.48,12,13.55,12s13.74-4,13.74-12V51.89h4.78v3.78q0,16.14-18.52,16.14c-12.25,0-18.33-5.38-18.33-16.14V0h4.78Zm32.07-6.38H202V39.24c0-8.27-3.68-12.15-9.56-12.15a10.34,10.34,0,0,0-5.68,1.69l-9.16,6.08v-5l10.66-7.07a7.79,7.79,0,0,1,2.79-.4c10.35,0,15.73,6,15.73,15.14Z"/><path class="cls-1" d="M224.3,70.71V0h4.78V70.71Z"/><path class="cls-1" d="M283.46,49.5H246.81V39c0-10.65,5-16.63,18.43-16.63s18.22,6,18.22,16.63Zm-36.65,4.38V52.49h4.78v2.69c0,4.28,1.6,7.27,4.78,9.16A23,23,0,0,0,268,67.13a77,77,0,0,0,13.84-1v4.58a96.42,96.42,0,0,1-14.54,1.1C253.68,71.81,246.81,65.83,246.81,53.88Zm31.87-9.16v-8c0-5.88-4.68-9.86-13.44-9.86-8.37,0-13.65,3.59-13.65,10.06v7.77Z"/><path class="cls-2" d="M62,64.14A24.7,24.7,0,1,1,50.85,24.61c5.68,7.91,8.61,21,14.27,34.92A24.39,24.39,0,0,1,62,64.14Z"/><path class="cls-3" d="M65.12,59.53C50.34,52.88,49.88,36.89,50.85,24.61,56.53,32.52,59.46,45.66,65.12,59.53Z"/></g></g></svg>