<svg xmlns="http://www.w3.org/2000/svg" xmlns:xlink="http://www.w3.org/1999/xlink" viewBox="0 0 648.2 209.98"><defs><style>.cls-1{fill:url(#Sfumatura_senza_nome_159);}.cls-2{fill:url(#Sfumatura_senza_nome_22);}</style><linearGradient id="Sfumatura_senza_nome_159" x1="194.14" y1="724.3" x2="131.92" y2="879.68" gradientTransform="matrix(0.76, 0.65, -0.65, 0.76, 477.54, -596.51)" gradientUnits="userSpaceOnUse"><stop offset="0" stop-color="#9e0d05"/><stop offset="0.79" stop-color="#ff0d05"/><stop offset="1" stop-color="#9e0d05"/></linearGradient><linearGradient id="Sfumatura_senza_nome_22" x1="188.06" y1="749.37" x2="180.29" y2="763.43" gradientTransform="matrix(0.76, 0.65, -0.65, 0.76, 477.54, -596.51)" gradientUnits="userSpaceOnUse"><stop offset="0" stop-color="#9e0d05"/><stop offset="0.49" stop-color="#ff0d05"/><stop offset="1" stop-color="#9e0d05"/></linearGradient></defs><title>logo</title><g id="Livello_2" data-name="Livello 2"><g id="Livello_1-2" data-name="Livello 1"><path d="M0,161.7V0H10.93V161.7Z"/><path d="M172.42,53.75l32.34,92-5.7,15.94L160.8,53.75Zm70.6,0h11.62L199.75,210H188.13Z"/><path d="M272.86,129.59c0-16.63,10.93-28.47,37.12-29.61l27.79-1.14v10.25l-29.15,1.37c-16.63.68-24.83,7.06-24.83,18.9V136c0,9.1,7.75,17.31,19.59,17.31,5.46,0,10-1.14,13.44-3.65l20.95-13.89v11.61l-24.15,16a18,18,0,0,1-6.37.91c-21.18,0-34.39-12.07-34.39-30.29Zm71.51-43.73c0-17.08-10.47-23.68-30.75-23.68l-31.88,2.27V53.52c15.72-1.59,27.79-2.28,36.21-2.28,16.4,0,37.35,6.61,37.35,35.76v74.7H344.37Z"/><path d="M399.49,126.4c0,18.45,10.25,27.56,31,27.56,21,0,31.43-9.11,31.43-27.56v-7.74h10.93v8.65q0,36.9-42.36,36.9c-28,0-41.9-12.3-41.9-36.9V0h10.93Zm73.33-14.58H461.89V89.73C461.89,70.83,453.47,62,440,62a23.52,23.52,0,0,0-13,3.87L406.1,79.71V68.33l24.36-16.18a18.1,18.1,0,0,1,6.38-.91c23.69,0,36,13.67,36,34.62Z"/><path d="M512.92,161.7V0h10.93V161.7Z"/><path d="M648.2,113.19H564.39V89.28c0-24.37,11.38-38,42.13-38s41.68,13.67,41.68,38Zm-83.81,10V120h10.93v6.14c0,9.8,3.64,16.63,10.93,21,7.52,4.32,16.4,6.37,26.65,6.37,12.52,0,23.23-.68,31.65-2.27V161.7a220.54,220.54,0,0,1-33.25,2.51C580.1,164.21,564.39,150.54,564.39,123.21Zm72.88-20.95V84c0-13.44-10.71-22.55-30.75-22.55-19.13,0-31.2,8.2-31.2,23v17.76Z"/><path class="cls-1" d="M141.79,146.68a56.48,56.48,0,1,1-25.51-90.4c13,18.08,19.68,48.14,32.63,79.84A55.93,55.93,0,0,1,141.79,146.68Z"/><path class="cls-2" d="M148.91,136.12c-33.8-15.19-34.86-51.75-32.63-79.84C129.26,74.36,136,104.42,148.91,136.12Z"/></g></g></svg>