<svg xmlns="http://www.w3.org/2000/svg" width="397.001" height="397" viewBox="0 0 397.001 397">
  <g id="Group_85" data-name="Group 85" transform="translate(-146 -295)">
    <path id="Union_4" data-name="Union 4" d="M-2994-402a2,2,0,0,1-2-2v-90a2,2,0,0,1,2-2h90a2,2,0,0,1,2,2v6a2,2,0,0,1-2,2h-82v82a2,2,0,0,1-2,2Z" transform="translate(3142 791)" fill="#fff"/>
    <path id="Union_5" data-name="Union 5" d="M-2994-402a2,2,0,0,1-2-2v-90a2,2,0,0,1,2-2h90a2,2,0,0,1,2,2v6a2,2,0,0,1-2,2h-82v82a2,2,0,0,1-2,2Z" transform="translate(47 3291) rotate(90)" fill="#fff"/>
    <path id="Union_6" data-name="Union 6" d="M-2994-402a2,2,0,0,1-2-2v-90a2,2,0,0,1,2-2h90a2,2,0,0,1,2,2v6a2,2,0,0,1-2,2h-82v82a2,2,0,0,1-2,2Z" transform="translate(-2453 196) rotate(180)" fill="#fff"/>
    <path id="Union_7" data-name="Union 7" d="M-2994-402a2,2,0,0,1-2-2v-90a2,2,0,0,1,2-2h90a2,2,0,0,1,2,2v6a2,2,0,0,1-2,2h-82v82a2,2,0,0,1-2,2Z" transform="translate(642 -2304) rotate(-90)" fill="#fff"/>
  </g>
</svg>
