<svg xmlns="http://www.w3.org/2000/svg" width="22.123" height="22.123" viewBox="0 0 22.123 22.123">
  <path id="question-circle-regular" d="M19.061,8A11.061,11.061,0,1,0,30.123,19.061,11.063,11.063,0,0,0,19.061,8Zm0,19.982a8.921,8.921,0,1,1,8.921-8.921A8.915,8.915,0,0,1,19.061,27.982ZM23.845,16.6c0,2.991-3.23,3.037-3.23,4.142v.283a.535.535,0,0,1-.535.535H18.043a.535.535,0,0,1-.535-.535v-.386c0-1.594,1.209-2.232,2.122-2.744.783-.439,1.263-.738,1.263-1.319,0-.769-.981-1.28-1.774-1.28-1.034,0-1.512.49-2.183,1.337a.536.536,0,0,1-.743.095l-1.241-.941a.536.536,0,0,1-.118-.73,5.014,5.014,0,0,1,4.486-2.417C21.509,12.639,23.845,14.347,23.845,16.6Zm-2.91,7.458a1.873,1.873,0,1,1-1.873-1.873A1.875,1.875,0,0,1,20.935,24.057Z" transform="translate(-8 -8)" fill="#1681ff"/>
</svg>
