<svg xmlns="http://www.w3.org/2000/svg" width="17.417" height="14.505" viewBox="0 0 17.417 14.505">
  <path id="share-square-solid" d="M17.189,5.027,12.835,8.88a.733.733,0,0,1-1.224-.494V6.347C7.24,6.374,5.4,7.341,6.629,11.2a.478.478,0,0,1-.756.491A5.358,5.358,0,0,1,3.628,7.631c0-4.078,3.556-4.887,7.983-4.91V.68A.733.733,0,0,1,12.835.186l4.354,3.853A.651.651,0,0,1,17.189,5.027Zm-5.578,5.714v1.951H1.935V3.626h1.54a.375.375,0,0,0,.261-.1A5.887,5.887,0,0,1,5.279,2.454a.337.337,0,0,0-.168-.641H1.451A1.408,1.408,0,0,0,0,3.173v9.973a1.408,1.408,0,0,0,1.451,1.36H12.095a1.408,1.408,0,0,0,1.451-1.36V10.63a.36.36,0,0,0-.484-.32,2.31,2.31,0,0,1-1.034.1.357.357,0,0,0-.417.336Z" transform="translate(0 0)" fill="#fff"/>
</svg>
