<svg xmlns="http://www.w3.org/2000/svg" width="46.365" height="46.365" viewBox="0 0 46.365 46.365">
  <g id="Sito_Web" data-name="Sito Web" transform="translate(-30 -494)">
    <g id="Ellipse_19" data-name="Ellipse 19" transform="translate(30 494)" fill="none" stroke="#007aff" stroke-width="2">
      <circle cx="23.182" cy="23.182" r="23.182" stroke="none"/>
      <circle cx="23.182" cy="23.182" r="22.182" fill="none"/>
    </g>
    <path id="globe-solid" d="M15.607,15.05C14.934,10.908,13.348,8,11.5,8S8.07,10.908,7.4,15.05ZM7.05,19.5A29.071,29.071,0,0,0,7.2,22.471H15.8A29.07,29.07,0,0,0,15.95,19.5a29.07,29.07,0,0,0-.153-2.968H7.2A29.071,29.071,0,0,0,7.05,19.5Zm15.06-4.453a11.527,11.527,0,0,0-7.328-6.567A15.654,15.654,0,0,1,17.1,15.05ZM8.219,8.482A11.519,11.519,0,0,0,.9,15.05H5.9A15.59,15.59,0,0,1,8.219,8.482Zm14.387,8.052h-5.32c.1.974.153,1.971.153,2.968s-.056,1.994-.153,2.968H22.6A11.4,11.4,0,0,0,23,19.5,11.6,11.6,0,0,0,22.606,16.534ZM5.566,19.5c0-1,.056-1.994.153-2.968H.4a11.244,11.244,0,0,0,0,5.937H5.714C5.621,21.5,5.566,20.5,5.566,19.5ZM7.4,23.955C8.07,28.1,9.656,31,11.5,31s3.432-2.908,4.1-7.05Zm7.388,6.567a11.538,11.538,0,0,0,7.328-6.567H17.105A15.654,15.654,0,0,1,14.786,30.522ZM.9,23.955a11.527,11.527,0,0,0,7.328,6.567A15.654,15.654,0,0,1,5.9,23.955H.9Z" transform="translate(41.747 497.767)" fill="#007aff"/>
  </g>
</svg>
