<svg xmlns="http://www.w3.org/2000/svg" width="14.977" height="14.977" viewBox="0 0 14.977 14.977">
  <path id="times-solid" d="M10.327,87.488l4.258-4.258a1.338,1.338,0,0,0,0-1.892l-.946-.946a1.338,1.338,0,0,0-1.892,0L7.488,84.65,3.231,80.392a1.338,1.338,0,0,0-1.892,0l-.946.946a1.338,1.338,0,0,0,0,1.892L4.65,87.488.392,91.746a1.338,1.338,0,0,0,0,1.892l.946.946a1.338,1.338,0,0,0,1.892,0l4.258-4.258,4.258,4.258a1.338,1.338,0,0,0,1.892,0l.946-.946a1.338,1.338,0,0,0,0-1.892Z" transform="translate(0 -80)" fill="#8e8e93"/>
</svg>
